<?xml version="1.0" encoding="utf-8"?>
<!-- Generator: Adobe Illustrator 23.0.0, SVG Export Plug-In . SVG Version: 6.00 Build 0)  -->
<svg version="1.1" id="Capa_1" xmlns="http://www.w3.org/2000/svg" xmlns:xlink="http://www.w3.org/1999/xlink" x="0px" y="0px"
	 viewBox="0 0 1000 500" style="enable-background:new 0 0 1000 500;" xml:space="preserve">
<style type="text/css">
	.st0{fill:#003DA6;}
</style>
<g>
	<path class="st0" d="M872.7,297.5l-9.3-9.3c-15.9,15.4-53,52-116.4,52c-64.9,0-126.2-44.8-126.2-154c0-74.1,22.6-107.1,42.7-126.7
		c21.6-21.1,51.5-31.4,77.2-31.4c63.3,0,100.4,41.2,113.3,95.3H866L861.3,7.6h-10.8c-4.1,17-21.1,17-23.7,17
		c-11.3,0-44.8-17-90.6-17c-88.6,0-175.1,62.3-175.1,177.7c0,128.2,89.1,177.7,172,177.7C827.9,362.9,872.2,298.5,872.7,297.5"/>
	<path class="st0" d="M278,88.6c0-54.8,8.9-62.7,49.1-66.9v-9.9H206v9.9c36.6,2.1,49.1,11,49.1,66.9v141c0,42.3-5.2,59.5-12,71
		c-15.1,24.6-44.9,41.3-85.7,41.3c-90.9,0-90.9-72.6-90.9-106V12.3H13.2v219.4c0,31.3,0,133.2,129.5,133.2
		c135.3,0,135.3-98.2,135.3-140V88.6z"/>
	<path class="st0" d="M428.4,5.5L319.8,262c-9.9,23-26.1,61.1-38.1,74.2c-9.4,9.9-18.3,11-26.6,11.5v9.9h103.4v-9.9
		c-11,0-35.5,0-35.5-22c0-5.7,1.6-13,4.2-19.9l93-226.1l121.7,277.4H594L438.8,5.5H428.4z"/>
	<path class="st0" d="M418.5,228.9c-17,0-30.7,13.8-30.7,30.7c0,17,13.7,30.7,30.7,30.7c17,0,30.7-13.7,30.7-30.7
		C449.3,242.6,435.5,228.9,418.5,228.9"/>
	<path class="st0" d="M983.3-0.2L881.9,0.6v9.9c40.8,2.6,48.1,8.4,48.1,47l3.3,275c0,28.2-2,53.9-5.6,77.2
		c-3.7,23.9-9.8,39.2-19.6,45.9c-9.8,7.4-17.2,11.6-22.1,13.5c-5.5,2.5-9.8,3.7-13.5,3.7c-7.3,0-14.7-6.1-22.7-18.4
		c-8.6-12.3-17.8-17.2-27.6-15.9c-9.8,2.5-16.5,5.5-20.2,9.8c-4.9,5.5-6.7,11-6.7,17.8c0.6,9.8,4.3,17.2,11.6,23.3
		c8,7.4,18.4,10.4,31.2,10.4c8.6-0.6,20.8-2.4,38-6.7c18.4-4.3,41.1-20.9,68.6-49.6c28.2-29.4,41.7-66.2,41.7-110.9L983.3-0.2z"/>
</g>
</svg>
